<svg width="32" height="32" viewBox="0 0 1000 1000" xmlns="http://www.w3.org/2000/svg" fill="none">
  <style>
      .cls-1 { fill: #010101; stroke: #fff; stroke-miterlimit: 10; stroke-width: 1.34px; }
      .cls-2 { fill: #1a1e38; }
  </style>
  <path class="cls-2" d="M807.81,975.64H229.86V155.49c1.07-10.99,6.98-58.25,49.79-94.73,36.38-31,77.4-35.48,90.6-36.4h421.18v106.69h-346.3c-6.53-.42-41.72-2.09-71.88,23.07-30.72,25.63-33.1,59.82-33.41,65.84v646.78h318.22L349.79,183.56c3.64-7.22,10.68-18.78,23.46-29.44,10.49-8.76,20.96-13.66,28.18-16.38,135.46,279.3,270.92,558.61,406.38,837.91Z"/>
  <g>
    <path class="cls-1" d="M362.59,737.95c1.26,2.06,2.46,4.15,3.79,6.16,1.99,3.02,3.98,3.07,6.17.14.99-1.33,1.79-2.8,2.78-4.13,8.12-10.9,19.07-17.22,32.4-19.06,7.53-1.04,15.18-1.3,22.79-1.64,8.87-.4,17.75-.74,26.62-.71,13.34.05,26.31-2.33,39.12-5.61,14.39-3.69,28.07-9.06,38.72-20.01,9.25-9.51,15.52-20.6,17.45-33.98,1.41-9.8.37-19.34-3.34-28.34-3.76-9.12-9.14-17.35-17.06-23.62-10.46-8.27-27.1-8.88-38.17-1.45-7.34,4.93-5.73,13.24,1.04,18.23,4.66,3.43,9.72,6.43,14.92,8.98,6.81,3.35,10.26,8.86,12.08,15.84,2.4,9.22-.62,17.17-5.66,24.65-6.17,9.15-15.73,13.14-25.8,15.07-12.2,2.34-24.67,3.38-37.06,4.67-11.48,1.2-23.03,1.73-34.5,3.05-12.54,1.44-24.76,4.51-35.96,10.49-9.46,5.05-17.8,11.67-24.26,20.37-.65.88-.72,2.76-.24,3.8,1.14,2.48,2.77,4.72,4.2,7.07-.02.01-.04.02-.05.03Z"/>
    <path class="cls-1" d="M428.43,420.57c-8.41,11.7-16.16,22.48-24.21,33.68,4.47,10.09,7.67,21.64,14.29,30.69,4.16,5.7,13.17,8.35,20.47,11.18,19.04,7.38,21.43,13.18,6.78,26.62-22.85,20.96-46.86,40.99-79.11,46.07-9.52,1.5-18.42,4.7-12.28,15.54,13.73,24.25,4.43,43.31-12.28,63.47,8.86,8.24,32.82,32.79,34.97,69.22,1.43,24.2-6.24,62.58-27.06,68.46-4.48,1.27-8.64.76-11.59.08v-131.14c-16.86,4.96-33.54,19.15-47.98.94-6.1-7.69-13-20.29-10.57-27.71,2.66-8.11,15-16.57,24.35-18.32,28.5-5.34,33.86-9.78,33.86-38.13,0-45.32-.25-90.64.36-135.95.08-5.97,3.57-16.2,7.29-17.11,26.63-6.56,53.84-14.76,82.72,2.4Z"/>
    <path class="cls-1" d="M227.85,550.4c0,12.54,0,23.11,0,33.68,0,17.33,9.67,26.97,25.89,28.2,13.98,1.06,26.19,5.84,28.71,18.98,1.47,7.68-4.53,19.2-10.75,25.4-9.76,9.72-22.57,10.88-36.08,4.1-18.07-9.07-31.7-21.66-39.13-40.65-11.32-28.96-.07-55.62,31.36-69.71Z"/>
    <path class="cls-1" d="M227.96,673.46v123.45c-24.32-9.1-38.77-48.66-26.95-75.01,7.4-16.49,17.55-31.76,26.95-48.44Z"/>
  </g>
</svg>

